:FULLY-SPECIFIED
:FORCE-ALL-JOINTS-BE-3DOF
:DEGREES
1223
root -0.805107 14.7751 -17.4053 369.075 21.3752 361.963
lfemur 3.57709 -0.61302 -7.26515
ltibia 53.8973 0 0
lfoot -1.28402 8.55267 0
ltoes -31.3899 0 0
rfemur -54.9969 -13.1245 20.0217
rtibia 74.6886 0 0
rfoot -20.4987 -15.4315 0
rtoes -7.04556 0 0
lowerback 13.9024 1.82476 -4.34956
upperback -3.077 1.5423 -0.22332
thorax -11.3318 1.01384 1.82672
lowerneck -0.619501 -9.70067 -10.6321
upperneck 0.589811 -13.0757 10.8986
head 1.74872 -6.5034 4.53247
lclavicle -1.66245e-14 -2.19261e-14 0
lhumerus -62.755 -30.0323 114.596
lradius 91.0369 0 0
lwrist 27.5396 0 0
lhand -24.8603 34.1852 0
lfingers 7.12502 0 0
lthumb 1.64498 71.6213 0
rclavicle -1.66245e-14 -2.19261e-14 0
rhumerus 65.9172 0.824886 -25.3609
rradius 93.0856 0 0
rwrist -7.77881 0 0
rhand -31.4278 -32.3943 0
rfingers 7.12502 0 0
rthumb -4.69478 -62.3185 0
1224
root -0.822908 14.7927 -17.2134 369.315 20.5521 361.679
lfemur 2.83753 -0.804065 -7.4042
ltibia 55.2851 0 0
lfoot -0.281845 7.14978 0
ltoes -31.2654 0 0
rfemur -54.7228 -12.493 20.6781
rtibia 74.7091 0 0
rfoot -20.7142 -16.4222 0
rtoes -6.82901 0 0
lowerback 13.7015 1.75291 -4.00828
upperback -3.15991 1.52449 -0.176815
thorax -11.2938 0.985671 1.69408
lowerneck -0.711329 -9.47957 -10.4618
upperneck 0.539725 -12.7629 10.7828
head 1.6947 -6.34585 4.49194
lclavicle -1.7927e-14 -2.1659e-14 0
lhumerus -61.7657 -30.7689 115.239
lradius 90.1743 0 0
lwrist 24.7051 0 0
lhand -25.4966 33.2233 0
lfingers 7.12502 0 0
lthumb 1.03068 70.1306 0
rclavicle -1.7927e-14 -2.1659e-14 0
rhumerus 65.9182 1.54345 -25.383
rradius 93.2269 0 0
rwrist -8.80437 0 0
rhand -31.0307 -32.6326 0
rfingers 7.12502 0 0
rthumb -4.3114 -62.5639 0
1225
root -0.840948 14.811 -17.0135 369.556 19.6881 361.381
lfemur 2.04943 -0.99614 -7.55909
ltibia 56.741 0 0
lfoot 0.749813 5.69903 0
ltoes -31.1111 0 0
rfemur -54.4166 -11.8284 21.3561
rtibia 74.7106 0 0
rfoot -20.9202 -17.4469 0
rtoes -6.60444 0 0
lowerback 13.4881 1.67919 -3.65386
upperback -3.245 1.50762 -0.128309
thorax -11.2505 0.957039 1.55644
lowerneck -0.808742 -9.24803 -10.2844
upperneck 0.494292 -12.4359 10.6613
head 1.64062 -6.18102 4.44932
lclavicle -1.92399e-14 -2.13463e-14 0
lhumerus -60.7084 -31.529 115.897
lradius 89.2821 0 0
lwrist 21.7553 0 0
lhand -26.1535 32.1978 0
lfingers 7.12502 0 0
lthumb 0.396419 68.4703 0
rclavicle -1.92399e-14 -2.13463e-14 0
rhumerus 65.8999 2.29787 -25.425
rradius 93.3724 0 0
rwrist -9.86966 0 0
rhand -30.6151 -32.8889 0
rfingers 7.12502 0 0
rthumb -3.91022 -62.8272 0
1226
root -0.85922 14.83 -16.8054 369.798 18.7822 361.069
lfemur 1.21127 -1.18904 -7.73038
ltibia 58.2666 0 0
lfoot 1.81132 4.19978 0
ltoes -30.9259 0 0
rfemur -54.0772 -11.1302 22.056
rtibia 74.6921 0 0
rfoot -21.1162 -18.506 0
rtoes -6.37188 0 0
lowerback 13.2619 1.6036 -3.28604
upperback -3.3323 1.49175 -0.0777487
thorax -11.2019 0.927953 1.41371
lowerneck -0.911894 -9.00582 -10.0998
upperneck 0.453753 -12.0941 10.534
head 1.58653 -6.00873 4.40455
lclavicle -2.05626e-14 -2.09864e-14 0
lhumerus -59.5808 -32.313 116.572
lradius 88.3599 0 0
lwrist 18.6885 0 0
lhand -26.8313 31.1072 0
lfingers 7.12502 0 0
lthumb -0.258065 66.6337 0
rclavicle -2.05626e-14 -2.09864e-14 0
rhumerus 65.8612 3.08911 -25.4882
rradius 93.5221 0 0
rwrist -10.9756 0 0
rhand -30.1806 -33.1634 0
rfingers 7.12502 0 0
rthumb -3.49077 -63.1086 0
1227
root -0.877721 14.8496 -16.5889 370.041 17.8334 360.742
lfemur 0.321571 -1.38256 -7.91859
ltibia 59.8631 0 0
lfoot 2.90307 2.65138 0
ltoes -30.7084 0 0
rfemur -53.7031 -10.3975 22.7782
rtibia 74.6528 0 0
rfoot -21.3016 -19.6002 0
rtoes -6.13134 0 0
lowerback 13.0225 1.52612 -2.90455
upperback -3.42184 1.47695 -0.0250795
thorax -11.1477 0.898422 1.2658
lowerneck -1.02094 -8.75269 -9.90786
upperneck 0.41835 -11.7374 10.4007
head 1.53247 -5.8288 4.35758
lclavicle -2.18947e-14 -2.05777e-14 0
lhumerus -58.3807 -33.1212 117.261
lradius 87.4072 0 0
lwrist 15.5026 0 0
lhand -27.5304 29.95 0
lfingers 7.12502 0 0
lthumb -0.933056 64.614 0
rclavicle -2.18947e-14 -2.05777e-14 0
rhumerus 65.8009 3.91813 -25.5734
rradius 93.6761 0 0
rwrist -12.123 0 0
rhand -29.7267 -33.4568 0
rfingers 7.12502 0 0
rthumb -3.05256 -63.4086 0
1228
root -0.896446 14.87 -16.3639 370.285 16.8406 360.401
lfemur -0.62119 -1.5765 -8.12429
ltibia 61.5318 0 0
lfoot 4.02542 1.05316 0
ltoes -30.4576 0 0
rfemur -53.2933 -9.62951 23.523
rtibia 74.5919 0 0
rfoot -21.476 -20.73 0
rtoes -5.88286 0 0
lowerback 12.7695 1.44675 -2.50914
upperback -3.51364 1.46327 0.0297518
thorax -11.0879 0.868456 1.11262
lowerneck -1.13604 -8.48838 -9.70835
upperneck 0.388321 -11.3653 10.2615
head 1.47849 -5.64108 4.30834
lclavicle -2.32356e-14 -2.01188e-14 0
lhumerus -57.1056 -33.9538 117.966
lradius 86.4236 0 0
lwrist 12.1958 0 0
lhand -28.251 28.7247 0
lfingers 7.12502 0 0
lthumb -1.62883 62.4045 0
rclavicle -2.32356e-14 -2.01188e-14 0
rhumerus 65.7179 4.7859 -25.6817
rradius 93.8344 0 0
rwrist -13.3127 0 0
rhand -29.2528 -33.7693 0
rfingers 7.12502 0 0
rthumb -2.59509 -63.7277 0
1229
root -0.91539 14.891 -16.13 370.529 15.8029 360.044
lfemur -1.61851 -1.77064 -8.34802
ltibia 63.2743 0 0
lfoot 5.17875 -0.595512 0
ltoes -30.172 0 0
rfemur -52.8463 -8.82558 24.2909
rtibia 74.5086 0 0
rfoot -21.6388 -21.8959 0
rtoes -5.62644 0 0
lowerback 12.5027 1.36549 -2.09954
upperback -3.60774 1.45078 0.0867991
thorax -11.0221 0.838065 0.954078
lowerneck -1.25735 -8.21266 -9.50114
upperneck 0.363909 -10.9775 10.116
head 1.42464 -5.44539 4.2568
lclavicle -2.45849e-14 -1.96081e-14 0
lhumerus -55.7533 -34.8113 118.687
lradius 85.4088 0 0
lwrist 8.76616 0 0
lhand -28.9935 27.4299 0
lfingers 7.12502 0 0
lthumb -2.34568 59.9987 0
rclavicle -2.45849e-14 -1.96081e-14 0
rhumerus 65.6111 5.6934 -25.8142
rradius 93.9969 0 0
rwrist -14.5456 0 0
rhand -28.7585 -34.1015 0
rfingers 7.12502 0 0
rthumb -2.11788 -64.0663 0
1230
root -0.934549 14.9128 -15.8871 370.775 14.7193 359.671
lfemur -2.6719 -1.96479 -8.59032
ltibia 65.0918 0 0
lfoot 6.36344 -2.2953 0
ltoes -29.8505 0 0
rfemur -52.3611 -7.98491 25.082
rtibia 74.402 0 0
rfoot -21.7894 -23.0985 0
rtoes -5.36211 0 0
lowerback 12.2217 1.28232 -1.6755
upperback -3.70416 1.43953 0.146116
thorax -10.9503 0.807258 0.790094
lowerneck -1.38503 -7.92527 -9.28608
upperneck 0.345354 -10.5737 9.96415
head 1.37095 -5.24156 4.20289
lclavicle -2.5942e-14 -1.9044e-14 0
lhumerus -54.3216 -35.6938 119.422
lradius 84.3622 0 0
lwrist 5.21174 0 0
lhand -29.758 26.0641 0
lfingers 7.12502 0 0
lthumb -3.08387 57.3896 0
rclavicle -2.5942e-14 -1.9044e-14 0
rhumerus 65.4793 6.64158 -25.9718
rradius 94.1638 0 0
rwrist -15.8226 0 0
rhand -28.2432 -34.4537 0
rfingers 7.12502 0 0
rthumb -1.62045 -64.4247 0
1231
root -0.953919 14.9353 -15.635 371.02 13.5888 359.283
lfemur -3.78286 -2.15874 -8.85175
ltibia 66.9857 0 0
lfoot 7.57986 -4.04685 0
ltoes -29.4918 0 0
rfemur -51.8362 -7.10674 25.8968
rtibia 74.2712 0 0
rfoot -21.9274 -24.3383 0
rtoes -5.08988 0 0
lowerback 11.9262 1.19723 -1.23674
upperback -3.80293 1.42959 0.207756
thorax -10.8723 0.776045 0.620577
lowerneck -1.51922 -7.62598 -9.06303
upperneck 0.332896 -10.1536 9.80585
head 1.31749 -5.02942 4.14657
lclavicle -2.73065e-14 -1.84249e-14 0
lhumerus -52.8082 -36.6017 120.172
lradius 83.2836 0 0
lwrist 1.53065 0 0
lhand -30.5449 24.6257 0
lfingers 7.12502 0 0
lthumb -3.84369 54.5707 0
rclavicle -2.73065e-14 -1.84249e-14 0
rhumerus 65.3214 7.63141 -26.1557
rradius 94.3351 0 0
rwrist -17.1445 0 0
rhand -27.7064 -34.8265 0
rfingers 7.12502 0 0
rthumb -1.1023 -64.8034 0
